<svg width="91" height="32" viewBox="0 0 91 32" fill="none" xmlns="http://www.w3.org/2000/svg">
<path d="M82.5205 6.27441C86.6148 6.27441 90.078 9.43577 90.0781 15.8066C90.0781 22.0087 86.761 25.3516 82.5088 25.3516C79.496 25.3514 77.9282 23.6255 77.2109 22.0811H77.0527V32H71.8779V6.51562H76.9805V9.62891H77.2109C77.9035 8.12071 79.3982 6.27458 82.5205 6.27441ZM41.9336 6.27441C46.8665 6.27448 50.7061 9.38799 50.7061 15.6865V17.0977H37.9971V17.1104C37.9972 19.8733 39.6377 21.5742 42.2256 21.5742C43.9511 21.5742 45.2866 20.8384 45.8096 19.4268L50.5967 19.7402C49.8676 23.1791 46.7568 25.4121 42.1406 25.4121C36.3936 25.4121 32.8828 21.7434 32.8828 15.8672C32.8828 10.1477 36.4425 6.27441 41.9336 6.27441ZM60.9668 6.27441C65.1212 6.27441 68.8886 8.13264 68.8887 12.5488V25.0498H63.9805V22.4795H63.834C62.9223 24.205 61.1365 25.3994 58.3779 25.3994C54.8185 25.3993 52.1826 23.5412 52.1826 19.873C52.1827 15.7344 55.4995 14.5039 59.1934 14.166C62.437 13.8523 63.7127 13.6952 63.7129 12.501V12.4287C63.7129 10.9083 62.7045 10.0273 60.9424 10.0273C59.0837 10.0274 57.9782 10.9323 57.626 12.1631L52.8389 11.7764C53.5563 8.39809 56.4959 6.27455 60.9668 6.27441ZM11.6396 0C17.2647 0.000168895 21.6018 3.43944 22.2822 8.32617H16.9365C16.2683 6.00954 14.4338 4.62121 11.7246 4.62109C7.9219 4.62109 5.33398 7.52957 5.33398 12.6699C5.33407 17.8339 7.82414 20.7664 11.7725 20.7666C15.2714 20.7666 17.3733 18.8235 17.4463 15.7588H12.1006V11.8252H22.5127V14.9385C22.5125 21.4419 18.0299 25.3875 11.749 25.3877C4.73868 25.3877 0 20.5368 0 12.7178C3.48217e-05 4.70577 5.06679 0 11.6396 0ZM30.5166 25.0498H25.3408V0.337891H30.5166V25.0498ZM63.749 16.458C63.1294 16.8682 61.2831 17.1341 60.1523 17.291C58.3302 17.5444 57.127 18.2563 57.127 19.7041C57.127 21.1159 58.27 21.8525 59.8613 21.8525C62.1334 21.8525 63.749 20.3674 63.749 18.4248V16.458ZM80.8682 10.3652C78.3535 10.3653 76.9434 12.477 76.9434 15.7832C76.9435 19.089 78.3783 21.2606 80.8682 21.2607C83.4076 21.2607 84.7928 19.0167 84.793 15.7832C84.793 12.5735 83.4324 10.3652 80.8682 10.3652ZM42.0195 10.1113C39.7229 10.1113 38.1065 11.8006 37.9971 13.9121H45.833C45.8211 11.7041 44.2668 10.1114 42.0195 10.1113Z" fill="white"/>
</svg>
