<svg width="28" height="28" viewBox="0 0 28 28" fill="none" xmlns="http://www.w3.org/2000/svg">
<path d="M27.0034 13.9914C27.3885 13.9914 27.7026 14.3039 27.683 14.6885C27.5574 17.152 26.7683 19.5406 25.3931 21.5987C23.8885 23.8504 21.75 25.6054 19.248 26.6418C16.746 27.6782 13.9929 27.9493 11.3368 27.421C8.68067 26.8927 6.24087 25.5886 4.32592 23.6736C2.41097 21.7587 1.10687 19.3189 0.578535 16.6627C0.0502023 14.0066 0.321363 11.2535 1.35773 8.75149C2.39409 6.24948 4.14912 4.11099 6.40086 2.60642C8.45897 1.23123 10.8476 0.442093 13.311 0.316544C13.6956 0.296942 14.0081 0.611002 14.0081 0.99613L14.0081 2.61384C14.0081 2.99897 13.6955 3.30881 13.3112 3.33393C11.444 3.45601 9.63709 4.067 8.07445 5.11112C6.31809 6.28469 4.94917 7.95272 4.14081 9.90428C3.33244 11.8558 3.12094 14.0033 3.53304 16.0751C3.94514 18.1468 4.96233 20.0499 6.45599 21.5435C7.94966 23.0372 9.8527 24.0544 11.9245 24.4665C13.9962 24.8786 16.1437 24.6671 18.0952 23.8587C20.0468 23.0504 21.7148 21.6814 22.8884 19.9251C23.9325 18.3624 24.5435 16.5556 24.6656 14.6883C24.6907 14.304 25.0006 13.9914 25.3857 13.9914H27.0034Z" fill="black"/>
<path d="M27.0034 13.9914C27.3885 13.9914 27.7026 14.3039 27.683 14.6885C27.5574 17.152 26.7683 19.5406 25.3931 21.5987C23.8885 23.8504 21.75 25.6054 19.248 26.6418C16.746 27.6782 13.9929 27.9493 11.3368 27.421C8.68067 26.8927 6.24087 25.5886 4.32592 23.6736C2.41097 21.7587 1.10687 19.3189 0.578535 16.6627C0.0502023 14.0066 0.321363 11.2535 1.35773 8.75149C2.39409 6.24948 4.14912 4.11099 6.40086 2.60642C8.45897 1.23123 10.8476 0.442093 13.311 0.316544C13.6956 0.296942 14.0081 0.611002 14.0081 0.99613L14.0081 2.61384C14.0081 2.99897 13.6955 3.30881 13.3112 3.33393C11.444 3.45601 9.63709 4.067 8.07445 5.11112C6.31809 6.28469 4.94917 7.95272 4.14081 9.90428C3.33244 11.8558 3.12094 14.0033 3.53304 16.0751C3.94514 18.1468 4.96233 20.0499 6.45599 21.5435C7.94966 23.0372 9.8527 24.0544 11.9245 24.4665C13.9962 24.8786 16.1437 24.6671 18.0952 23.8587C20.0468 23.0504 21.7148 21.6814 22.8884 19.9251C23.9325 18.3624 24.5435 16.5556 24.6656 14.6883C24.6907 14.304 25.0006 13.9914 25.3857 13.9914H27.0034Z" fill="black" fill-opacity="0.2"/>
<path d="M12.2965 12.1166C12.2965 13.6291 11.0704 14.8551 9.55797 14.8551C8.04552 14.8551 6.81944 13.6291 6.81944 12.1166C6.81944 10.6042 8.04552 9.37809 9.55797 9.37809C11.0704 9.37809 12.2965 10.6042 12.2965 12.1166Z" fill="black"/>
<path d="M12.2965 12.1166C12.2965 13.6291 11.0704 14.8551 9.55797 14.8551C8.04552 14.8551 6.81944 13.6291 6.81944 12.1166C6.81944 10.6042 8.04552 9.37809 9.55797 9.37809C11.0704 9.37809 12.2965 10.6042 12.2965 12.1166Z" fill="black" fill-opacity="0.2"/>
<path d="M17.0889 11.4447C17.0889 11.0596 17.4011 10.7474 17.7863 10.7474H22.211C22.5961 10.7474 22.9083 11.0596 22.9083 11.4447V12.7885C22.9083 13.1737 22.5961 13.4859 22.211 13.4859H17.7863C17.4011 13.4859 17.0889 13.1737 17.0889 12.7885V11.4447Z" fill="black"/>
<path d="M17.0889 11.4447C17.0889 11.0596 17.4011 10.7474 17.7863 10.7474H22.211C22.5961 10.7474 22.9083 11.0596 22.9083 11.4447V12.7885C22.9083 13.1737 22.5961 13.4859 22.211 13.4859H17.7863C17.4011 13.4859 17.0889 13.1737 17.0889 12.7885V11.4447Z" fill="black" fill-opacity="0.2"/>
</svg>
