<svg width="25" height="24" viewBox="0 0 25 24" fill="none" xmlns="http://www.w3.org/2000/svg">
<path d="M4.07812 7C4.07812 5.343 5.42113 4 7.07812 4H17.0781C18.7351 4 20.0781 5.343 20.0781 7V17C20.0781 18.657 18.7351 20 17.0781 20H7.07812C5.42113 20 4.07812 18.657 4.07812 17V7ZM8.92813 17.393V10.169H6.51213V17.393H8.92813ZM7.72013 9.182C8.56213 9.182 9.08712 8.628 9.08712 7.934C9.07113 7.225 8.56213 6.686 7.73612 6.686C6.90912 6.686 6.36912 7.225 6.36912 7.934C6.36912 8.628 6.89313 9.182 7.70412 9.182H7.72013ZM12.6821 17.393V13.359C12.6821 13.143 12.6981 12.928 12.7611 12.773C12.9361 12.342 13.3341 11.895 14.0011 11.895C14.8761 11.895 15.2261 12.557 15.2261 13.529V17.393H17.6421V13.251C17.6421 11.032 16.4501 9.999 14.8601 9.999C13.5781 9.999 13.0031 10.699 12.6821 11.192V10.169H10.2651C10.2971 10.844 10.2661 17.352 10.2651 17.394L12.6821 17.393Z" fill="#808080"/>
</svg>
