<svg width="70" height="25" viewBox="0 0 70 25" fill="none" xmlns="http://www.w3.org/2000/svg">
<path d="M63.8701 4.79492C66.9992 4.7951 69.6455 7.21193 69.6455 12.0811C69.6454 16.821 67.1102 19.376 63.8604 19.376C61.5578 19.3758 60.3597 18.0564 59.8115 16.876H59.6904V24.457H55.7354V4.97949H59.6348V7.35938H59.8115C60.3409 6.20663 61.4836 4.79492 63.8701 4.79492ZM32.8477 4.79492C36.6179 4.79492 39.5527 7.17443 39.5527 11.9883V13.0674H29.8398V13.0771C29.84 15.1887 31.0935 16.4893 33.0713 16.4893C34.39 16.4892 35.4108 15.9264 35.8105 14.8477L39.4697 15.0869C38.9125 17.7151 36.5347 19.4217 33.0068 19.4219C28.6145 19.4219 25.9307 16.6181 25.9307 12.127C25.9307 7.75568 28.651 4.79507 32.8477 4.79492ZM47.3916 4.79492C50.5668 4.79492 53.4463 6.21554 53.4463 9.59082V19.1445H49.6943V17.1807H49.583C48.8862 18.4994 47.5214 19.4121 45.4131 19.4121C42.6925 19.4121 40.6777 17.9921 40.6777 15.1885C40.6778 12.0253 43.213 11.0844 46.0361 10.8262C48.5153 10.5864 49.4902 10.4666 49.4902 9.55371V9.49805C49.49 8.33634 48.7195 7.66317 47.373 7.66309C45.9524 7.66309 45.1071 8.35523 44.8379 9.2959L41.1787 9C41.7271 6.41803 43.9745 4.79496 47.3916 4.79492ZM9.69531 0C13.9946 0 17.31 2.62831 17.8301 6.36328H13.7441C13.2334 4.59263 11.8315 3.53223 9.76074 3.53223C6.85451 3.53225 4.87711 5.75422 4.87695 9.68262C4.87695 13.6296 6.78001 15.871 9.79785 15.8711C12.4721 15.8711 14.079 14.3864 14.1348 12.0439H10.0488V9.03711H18.0068V11.417C18.0068 16.3877 14.5799 19.4033 9.7793 19.4033C4.42143 19.4033 0.799805 15.6957 0.799805 9.71973C0.799889 3.59652 4.67202 0.000230896 9.69531 0ZM24.123 19.1455H20.167V0.257812H24.123V19.1455ZM49.5186 12.5791C49.045 12.8927 47.6328 13.0949 46.7686 13.2148C45.376 13.4085 44.457 13.953 44.457 15.0596C44.4571 16.1383 45.3299 16.701 46.5459 16.7012C48.2825 16.7012 49.5185 15.5667 49.5186 14.082V12.5791ZM62.6064 7.92188C60.6846 7.92203 59.6074 9.53566 59.6074 12.0625C59.6075 14.5891 60.7035 16.2489 62.6064 16.249C64.5473 16.249 65.6064 14.5339 65.6064 12.0625C65.6064 9.60939 64.5663 7.92188 62.6064 7.92188ZM32.9141 7.72754C31.1587 7.72754 29.9234 9.0189 29.8398 10.6328H35.8291C35.8201 8.94525 34.6315 7.72772 32.9141 7.72754Z" fill="black"/>
<path d="M63.8701 4.79492C66.9992 4.7951 69.6455 7.21193 69.6455 12.0811C69.6454 16.821 67.1102 19.376 63.8604 19.376C61.5578 19.3758 60.3597 18.0564 59.8115 16.876H59.6904V24.457H55.7354V4.97949H59.6348V7.35938H59.8115C60.3409 6.20663 61.4836 4.79492 63.8701 4.79492ZM32.8477 4.79492C36.6179 4.79492 39.5527 7.17443 39.5527 11.9883V13.0674H29.8398V13.0771C29.84 15.1887 31.0935 16.4893 33.0713 16.4893C34.39 16.4892 35.4108 15.9264 35.8105 14.8477L39.4697 15.0869C38.9125 17.7151 36.5347 19.4217 33.0068 19.4219C28.6145 19.4219 25.9307 16.6181 25.9307 12.127C25.9307 7.75568 28.651 4.79507 32.8477 4.79492ZM47.3916 4.79492C50.5668 4.79492 53.4463 6.21554 53.4463 9.59082V19.1445H49.6943V17.1807H49.583C48.8862 18.4994 47.5214 19.4121 45.4131 19.4121C42.6925 19.4121 40.6777 17.9921 40.6777 15.1885C40.6778 12.0253 43.213 11.0844 46.0361 10.8262C48.5153 10.5864 49.4902 10.4666 49.4902 9.55371V9.49805C49.49 8.33634 48.7195 7.66317 47.373 7.66309C45.9524 7.66309 45.1071 8.35523 44.8379 9.2959L41.1787 9C41.7271 6.41803 43.9745 4.79496 47.3916 4.79492ZM9.69531 0C13.9946 0 17.31 2.62831 17.8301 6.36328H13.7441C13.2334 4.59263 11.8315 3.53223 9.76074 3.53223C6.85451 3.53225 4.87711 5.75422 4.87695 9.68262C4.87695 13.6296 6.78001 15.871 9.79785 15.8711C12.4721 15.8711 14.079 14.3864 14.1348 12.0439H10.0488V9.03711H18.0068V11.417C18.0068 16.3877 14.5799 19.4033 9.7793 19.4033C4.42143 19.4033 0.799805 15.6957 0.799805 9.71973C0.799889 3.59652 4.67202 0.000230896 9.69531 0ZM24.123 19.1455H20.167V0.257812H24.123V19.1455ZM49.5186 12.5791C49.045 12.8927 47.6328 13.0949 46.7686 13.2148C45.376 13.4085 44.457 13.953 44.457 15.0596C44.4571 16.1383 45.3299 16.701 46.5459 16.7012C48.2825 16.7012 49.5185 15.5667 49.5186 14.082V12.5791ZM62.6064 7.92188C60.6846 7.92203 59.6074 9.53566 59.6074 12.0625C59.6075 14.5891 60.7035 16.2489 62.6064 16.249C64.5473 16.249 65.6064 14.5339 65.6064 12.0625C65.6064 9.60939 64.5663 7.92188 62.6064 7.92188ZM32.9141 7.72754C31.1587 7.72754 29.9234 9.0189 29.8398 10.6328H35.8291C35.8201 8.94525 34.6315 7.72772 32.9141 7.72754Z" fill="black" fill-opacity="0.2"/>
</svg>
