<svg width="20" height="20" viewBox="0 0 20 20" fill="none" xmlns="http://www.w3.org/2000/svg">
<rect width="20" height="20" rx="10" fill="black"/>
<rect width="20" height="20" rx="10" fill="black" fill-opacity="0.2"/>
<path d="M14.4913 5.50834C14.258 5.27501 13.908 5.27501 13.6747 5.50834L9.99967 9.18334L6.32467 5.50834C6.09134 5.27501 5.74134 5.27501 5.50801 5.50834C5.27467 5.74168 5.27467 6.09168 5.50801 6.32501L9.18301 10L5.50801 13.675C5.27467 13.9083 5.27467 14.2583 5.50801 14.4917C5.62467 14.6083 5.74134 14.6667 5.91634 14.6667C6.09134 14.6667 6.20801 14.6083 6.32467 14.4917L9.99967 10.8167L13.6747 14.4917C13.7913 14.6083 13.9663 14.6667 14.083 14.6667C14.1997 14.6667 14.3747 14.6083 14.4913 14.4917C14.7247 14.2583 14.7247 13.9083 14.4913 13.675L10.8163 10L14.4913 6.32501C14.7247 6.09168 14.7247 5.74168 14.4913 5.50834Z" fill="white"/>
</svg>
