<svg width="20" height="20" viewBox="0 0 20 20" fill="none" xmlns="http://www.w3.org/2000/svg">
<rect width="20" height="20" rx="10" fill="black"/>
<rect width="20" height="20" rx="10" fill="black" fill-opacity="0.2"/>
<path d="M14.7476 7.39691L9.14759 12.9969C9.09882 13.0459 9.04086 13.0847 8.97705 13.1112C8.91323 13.1377 8.84481 13.1513 8.77572 13.1513C8.70662 13.1513 8.6382 13.1377 8.57439 13.1112C8.51057 13.0847 8.45261 13.0459 8.40384 12.9969L5.95384 10.5469C5.90501 10.4981 5.86627 10.4401 5.83984 10.3763C5.81341 10.3125 5.7998 10.2441 5.7998 10.175C5.7998 10.106 5.81341 10.0376 5.83984 9.97378C5.86627 9.90997 5.90501 9.852 5.95384 9.80316C6.00268 9.75433 6.06065 9.71559 6.12446 9.68916C6.18826 9.66273 6.25665 9.64912 6.32572 9.64912C6.39478 9.64912 6.46317 9.66273 6.52697 9.68916C6.59078 9.71559 6.64876 9.75433 6.69759 9.80316L8.77615 11.8817L14.0047 6.65404C14.1033 6.55541 14.2371 6.5 14.3766 6.5C14.5161 6.5 14.6498 6.55541 14.7485 6.65404C14.8471 6.75266 14.9025 6.88643 14.9025 7.02591C14.9025 7.16539 14.8471 7.29916 14.7485 7.39779L14.7476 7.39691Z" fill="#F1CCFF"/>
</svg>
