<svg xmlns="http://www.w3.org/2000/svg" xmlns:xlink="http://www.w3.org/1999/xlink" width="140" zoomAndPan="magnify" viewBox="0 0 104.88 37.5" height="50" preserveAspectRatio="xMidYMid meet" version="1.0"><defs><g/><clipPath id="fff7eaa164"><path d="M 0.628906 6 L 104.128906 6 L 104.128906 33 L 0.628906 33 Z M 0.628906 6 " clip-rule="nonzero"/></clipPath><clipPath id="8246e279a9"><path d="M 0.628906 6 L 15 6 L 15 22 L 0.628906 22 Z M 0.628906 6 " clip-rule="nonzero"/></clipPath><clipPath id="c59d22013f"><path d="M 90 6 L 104.128906 6 L 104.128906 22 L 90 22 Z M 90 6 " clip-rule="nonzero"/></clipPath><clipPath id="bf00a64e7a"><rect x="0" width="105" y="0" height="27"/></clipPath></defs><g clip-path="url(#fff7eaa164)"><g transform="matrix(1, 0, 0, 1, 0.000000000000000111, 6)"><g clip-path="url(#bf00a64e7a)"><g clip-path="url(#8246e279a9)"><g fill="#ffffff" fill-opacity="1"><g transform="translate(0.630789, 21.077549)"><g><path d="M 12.796875 -13.140625 C 13.117188 -12.773438 13.222656 -12.390625 13.109375 -11.984375 C 13.054688 -11.796875 12.96875 -11.617188 12.84375 -11.453125 C 12.71875 -11.296875 12.585938 -11.144531 12.453125 -11 C 12.359375 -10.914062 12.269531 -10.828125 12.1875 -10.734375 C 12.101562 -10.648438 12.019531 -10.566406 11.9375 -10.484375 C 11.800781 -10.328125 11.617188 -10.273438 11.390625 -10.328125 C 11.160156 -10.378906 10.929688 -10.460938 10.703125 -10.578125 C 10.472656 -10.703125 10.273438 -10.789062 10.109375 -10.84375 C 9.734375 -10.976562 9.363281 -11.097656 9 -11.203125 C 8.632812 -11.304688 8.253906 -11.378906 7.859375 -11.421875 C 7.773438 -11.441406 7.695312 -11.453125 7.625 -11.453125 C 7.550781 -11.453125 7.46875 -11.453125 7.375 -11.453125 C 6.550781 -11.453125 5.8125 -11.203125 5.15625 -10.703125 C 4.5 -10.203125 4.050781 -9.535156 3.8125 -8.703125 C 3.5625 -7.804688 3.585938 -6.925781 3.890625 -6.0625 C 4.203125 -5.195312 4.726562 -4.5 5.46875 -3.96875 C 6.050781 -3.582031 6.800781 -3.390625 7.71875 -3.390625 C 8.882812 -3.390625 9.820312 -3.664062 10.53125 -4.21875 C 10.875 -4.488281 11.160156 -4.660156 11.390625 -4.734375 C 11.617188 -4.816406 11.894531 -4.664062 12.21875 -4.28125 C 12.382812 -4.101562 12.546875 -3.914062 12.703125 -3.71875 C 12.867188 -3.53125 13.03125 -3.332031 13.1875 -3.125 C 13.382812 -2.851562 13.414062 -2.585938 13.28125 -2.328125 C 13.144531 -2.078125 12.914062 -1.84375 12.59375 -1.625 C 12.269531 -1.40625 11.9375 -1.210938 11.59375 -1.046875 C 11.25 -0.890625 10.984375 -0.769531 10.796875 -0.6875 C 9.753906 -0.195312 8.664062 0.046875 7.53125 0.046875 C 6.414062 0.046875 5.347656 -0.191406 4.328125 -0.671875 C 3.304688 -1.160156 2.398438 -1.84375 1.609375 -2.71875 C 0.921875 -3.519531 0.46875 -4.34375 0.25 -5.1875 C 0.03125 -6.039062 -0.0390625 -6.875 0.03125 -7.6875 C 0.113281 -8.5 0.253906 -9.238281 0.453125 -9.90625 C 0.898438 -11.257812 1.617188 -12.34375 2.609375 -13.15625 C 3.597656 -13.96875 4.832031 -14.46875 6.3125 -14.65625 C 6.800781 -14.707031 7.257812 -14.734375 7.6875 -14.734375 C 7.925781 -14.734375 8.273438 -14.703125 8.734375 -14.640625 C 9.191406 -14.585938 9.679688 -14.492188 10.203125 -14.359375 C 10.734375 -14.234375 11.234375 -14.066406 11.703125 -13.859375 C 12.179688 -13.660156 12.546875 -13.421875 12.796875 -13.140625 Z M 12.796875 -13.140625 "/></g></g></g></g><g fill="#ffffff" fill-opacity="1"><g transform="translate(16.542702, 21.077549)"><g><path d="M 7.921875 -11.28125 C 7.828125 -11.226562 7.722656 -11.1875 7.609375 -11.15625 C 7.503906 -11.132812 7.40625 -11.109375 7.3125 -11.078125 C 7.125 -11.054688 6.925781 -11.039062 6.71875 -11.03125 C 6.519531 -11.019531 6.328125 -10.988281 6.140625 -10.9375 C 5.722656 -10.820312 5.367188 -10.609375 5.078125 -10.296875 C 4.796875 -9.984375 4.578125 -9.628906 4.421875 -9.234375 C 4.140625 -8.453125 3.957031 -7.601562 3.875 -6.6875 C 3.800781 -5.769531 3.773438 -4.84375 3.796875 -3.90625 C 3.828125 -2.976562 3.832031 -2.097656 3.8125 -1.265625 L 3.8125 -0.890625 C 3.8125 -0.566406 3.6875 -0.34375 3.4375 -0.21875 C 3.195312 -0.09375 2.898438 -0.0234375 2.546875 -0.015625 C 2.203125 -0.00390625 1.863281 -0.015625 1.53125 -0.046875 C 1.207031 -0.0859375 0.953125 -0.113281 0.765625 -0.125 C 0.597656 -0.125 0.46875 -0.160156 0.375 -0.234375 C 0.226562 -0.328125 0.132812 -0.519531 0.09375 -0.8125 C 0.0507812 -1.101562 0.03125 -1.425781 0.03125 -1.78125 C 0.03125 -2.132812 0.0390625 -2.472656 0.0625 -2.796875 C 0.09375 -3.117188 0.109375 -3.359375 0.109375 -3.515625 C 0.140625 -4.109375 0.171875 -4.703125 0.203125 -5.296875 C 0.234375 -5.890625 0.25 -6.484375 0.25 -7.078125 C 0.25 -8.234375 0.25 -9.390625 0.25 -10.546875 C 0.25 -11.710938 0.25 -12.878906 0.25 -14.046875 C 0.25 -14.335938 0.316406 -14.519531 0.453125 -14.59375 C 0.585938 -14.675781 0.753906 -14.707031 0.953125 -14.6875 C 1.160156 -14.664062 1.367188 -14.664062 1.578125 -14.6875 C 1.929688 -14.738281 2.28125 -14.765625 2.625 -14.765625 C 3.320312 -14.765625 3.851562 -14.539062 4.21875 -14.09375 C 4.351562 -13.945312 4.523438 -13.875 4.734375 -13.875 C 4.804688 -13.875 4.863281 -13.878906 4.90625 -13.890625 C 5.132812 -13.910156 5.398438 -13.988281 5.703125 -14.125 C 6.003906 -14.257812 6.320312 -14.390625 6.65625 -14.515625 C 6.988281 -14.648438 7.296875 -14.738281 7.578125 -14.78125 C 7.867188 -14.820312 8.109375 -14.769531 8.296875 -14.625 C 8.484375 -14.476562 8.578125 -14.1875 8.578125 -13.75 C 8.578125 -13.519531 8.570312 -13.289062 8.5625 -13.0625 C 8.550781 -12.832031 8.539062 -12.609375 8.53125 -12.390625 C 8.507812 -12.273438 8.488281 -12.148438 8.46875 -12.015625 C 8.457031 -11.878906 8.410156 -11.757812 8.328125 -11.65625 C 8.222656 -11.46875 8.085938 -11.34375 7.921875 -11.28125 Z M 7.921875 -11.28125 "/></g></g></g><g fill="#ffffff" fill-opacity="1"><g transform="translate(27.668311, 21.077549)"><g><path d="M 14.28125 -6.46875 C 14.070312 -6.289062 13.769531 -6.171875 13.375 -6.109375 C 12.976562 -6.054688 12.550781 -6.03125 12.09375 -6.03125 C 11.644531 -6.03125 11.222656 -6.035156 10.828125 -6.046875 C 10.441406 -6.066406 10.148438 -6.078125 9.953125 -6.078125 C 9.066406 -6.066406 8.191406 -6.054688 7.328125 -6.046875 C 6.460938 -6.035156 5.585938 -6.03125 4.703125 -6.03125 C 4.429688 -6.03125 4.257812 -5.941406 4.1875 -5.765625 C 4.113281 -5.597656 4.101562 -5.410156 4.15625 -5.203125 C 4.21875 -4.992188 4.300781 -4.8125 4.40625 -4.65625 C 4.757812 -4.195312 5.203125 -3.828125 5.734375 -3.546875 C 6.273438 -3.265625 6.832031 -3.09375 7.40625 -3.03125 C 8.050781 -2.957031 8.585938 -3.046875 9.015625 -3.296875 C 9.453125 -3.546875 9.941406 -3.804688 10.484375 -4.078125 C 10.742188 -4.210938 10.921875 -4.296875 11.015625 -4.328125 C 11.109375 -4.359375 11.265625 -4.28125 11.484375 -4.09375 C 11.710938 -3.90625 11.929688 -3.648438 12.140625 -3.328125 C 12.359375 -3.003906 12.570312 -2.726562 12.78125 -2.5 C 13 -2.207031 12.988281 -1.929688 12.75 -1.671875 C 12.507812 -1.421875 12.144531 -1.1875 11.65625 -0.96875 C 11.164062 -0.757812 10.628906 -0.578125 10.046875 -0.421875 C 9.472656 -0.273438 8.953125 -0.160156 8.484375 -0.078125 C 8.015625 0.00390625 7.695312 0.046875 7.53125 0.046875 C 6.394531 0.046875 5.347656 -0.175781 4.390625 -0.625 C 3.429688 -1.070312 2.613281 -1.679688 1.9375 -2.453125 C 1.257812 -3.222656 0.75 -4.09375 0.40625 -5.0625 C 0.0625 -6.03125 -0.0703125 -7.046875 0 -8.109375 C 0.0820312 -9.171875 0.414062 -10.203125 1 -11.203125 C 1.4375 -11.984375 2.023438 -12.644531 2.765625 -13.1875 C 3.503906 -13.726562 4.316406 -14.128906 5.203125 -14.390625 C 6.097656 -14.648438 7.007812 -14.769531 7.9375 -14.75 C 8.875 -14.726562 9.757812 -14.539062 10.59375 -14.1875 C 11.4375 -13.84375 12.171875 -13.320312 12.796875 -12.625 C 13.085938 -12.300781 13.363281 -11.894531 13.625 -11.40625 C 13.894531 -10.925781 14.117188 -10.40625 14.296875 -9.84375 C 14.484375 -9.289062 14.597656 -8.742188 14.640625 -8.203125 C 14.691406 -7.671875 14.640625 -7.1875 14.484375 -6.75 C 14.453125 -6.644531 14.382812 -6.550781 14.28125 -6.46875 Z M 10.4375 -9.109375 C 10.488281 -9.234375 10.503906 -9.363281 10.484375 -9.5 C 10.472656 -9.695312 10.378906 -9.890625 10.203125 -10.078125 C 9.742188 -10.722656 9.148438 -11.195312 8.421875 -11.5 C 7.691406 -11.8125 6.945312 -11.796875 6.1875 -11.453125 C 5.84375 -11.296875 5.519531 -11.097656 5.21875 -10.859375 C 4.925781 -10.628906 4.65625 -10.378906 4.40625 -10.109375 C 4.332031 -10.035156 4.257812 -9.957031 4.1875 -9.875 C 4.125 -9.789062 4.078125 -9.695312 4.046875 -9.59375 C 3.972656 -9.394531 4.003906 -9.207031 4.140625 -9.03125 C 4.285156 -8.863281 4.457031 -8.78125 4.65625 -8.78125 L 9.84375 -8.78125 C 10.132812 -8.78125 10.332031 -8.890625 10.4375 -9.109375 Z M 10.4375 -9.109375 "/></g></g></g><g fill="#ffffff" fill-opacity="1"><g transform="translate(44.878641, 21.077549)"><g><path d="M 12.453125 -0.640625 C 12.316406 -0.460938 12.101562 -0.367188 11.8125 -0.359375 C 11.539062 -0.359375 11.273438 -0.410156 11.015625 -0.515625 C 10.765625 -0.628906 10.515625 -0.738281 10.265625 -0.84375 C 10.023438 -0.957031 9.757812 -1.015625 9.46875 -1.015625 C 9.28125 -1.015625 9.09375 -1 8.90625 -0.96875 C 8.71875 -0.945312 8.550781 -0.921875 8.40625 -0.890625 L 8.265625 -0.859375 C 7.773438 -0.773438 7.296875 -0.664062 6.828125 -0.53125 C 6.367188 -0.394531 5.929688 -0.257812 5.515625 -0.125 C 5.335938 -0.0703125 5.148438 -0.03125 4.953125 0 C 4.753906 0.03125 4.554688 0.046875 4.359375 0.046875 C 3.117188 0.046875 2.070312 -0.441406 1.21875 -1.421875 C 0.25 -2.523438 -0.128906 -3.882812 0.078125 -5.5 C 0.160156 -6.144531 0.382812 -6.722656 0.75 -7.234375 C 1.113281 -7.742188 1.578125 -8.132812 2.140625 -8.40625 C 2.429688 -8.539062 2.734375 -8.632812 3.046875 -8.6875 C 3.367188 -8.75 3.703125 -8.804688 4.046875 -8.859375 C 4.128906 -8.859375 4.203125 -8.863281 4.265625 -8.875 C 4.335938 -8.882812 4.410156 -8.894531 4.484375 -8.90625 L 7.8125 -9.359375 C 8.25 -9.429688 8.523438 -9.5625 8.640625 -9.75 C 8.753906 -9.945312 8.816406 -10.109375 8.828125 -10.234375 C 8.867188 -10.523438 8.78125 -10.785156 8.5625 -11.015625 C 8.351562 -11.253906 8.101562 -11.414062 7.8125 -11.5 C 7.289062 -11.707031 6.75 -11.8125 6.1875 -11.8125 L 6.109375 -11.8125 C 5.578125 -11.789062 5.070312 -11.710938 4.59375 -11.578125 C 4.125 -11.441406 3.671875 -11.28125 3.234375 -11.09375 C 3.097656 -11.03125 2.9375 -11 2.75 -11 C 2.375 -11 2.003906 -11.117188 1.640625 -11.359375 C 1.273438 -11.609375 1.015625 -11.90625 0.859375 -12.25 C 0.796875 -12.382812 0.765625 -12.492188 0.765625 -12.578125 C 0.773438 -12.671875 0.789062 -12.742188 0.8125 -12.796875 C 0.914062 -13.023438 1.113281 -13.226562 1.40625 -13.40625 C 1.707031 -13.582031 2.019531 -13.734375 2.34375 -13.859375 C 2.675781 -13.984375 2.957031 -14.082031 3.1875 -14.15625 C 4.40625 -14.539062 5.632812 -14.734375 6.875 -14.734375 C 6.988281 -14.734375 7.101562 -14.734375 7.21875 -14.734375 C 7.34375 -14.734375 7.460938 -14.726562 7.578125 -14.71875 C 8.171875 -14.675781 8.828125 -14.554688 9.546875 -14.359375 C 10.273438 -14.171875 10.894531 -13.804688 11.40625 -13.265625 C 12 -12.617188 12.351562 -11.972656 12.46875 -11.328125 C 12.601562 -10.597656 12.648438 -9.835938 12.609375 -9.046875 C 12.566406 -8.253906 12.554688 -7.488281 12.578125 -6.75 C 12.578125 -5.976562 12.578125 -5.207031 12.578125 -4.4375 C 12.578125 -3.664062 12.582031 -2.90625 12.59375 -2.15625 C 12.59375 -1.90625 12.601562 -1.632812 12.625 -1.34375 C 12.65625 -1.0625 12.597656 -0.828125 12.453125 -0.640625 Z M 8.75 -5.015625 C 8.882812 -5.285156 8.925781 -5.515625 8.875 -5.703125 C 8.832031 -5.890625 8.785156 -6.015625 8.734375 -6.078125 C 8.660156 -6.179688 8.550781 -6.28125 8.40625 -6.375 C 8.269531 -6.46875 8.070312 -6.523438 7.8125 -6.546875 L 7.609375 -6.5625 C 7.453125 -6.582031 7.289062 -6.59375 7.125 -6.59375 C 6.96875 -6.59375 6.800781 -6.59375 6.625 -6.59375 C 6.332031 -6.59375 5.984375 -6.5625 5.578125 -6.5 C 5.171875 -6.445312 4.78125 -6.289062 4.40625 -6.03125 C 4.144531 -5.832031 3.984375 -5.617188 3.921875 -5.390625 C 3.847656 -5.203125 3.835938 -4.96875 3.890625 -4.6875 C 4.015625 -4.15625 4.242188 -3.742188 4.578125 -3.453125 C 4.921875 -3.171875 5.328125 -3.03125 5.796875 -3.03125 C 6.390625 -3.03125 6.972656 -3.222656 7.546875 -3.609375 C 8.128906 -4.003906 8.53125 -4.472656 8.75 -5.015625 Z M 8.75 -5.015625 "/></g></g></g><g fill="#ffffff" fill-opacity="1"><g transform="translate(60.077706, 21.077549)"><g><path d="M 8.296875 -13.921875 C 8.597656 -13.921875 8.789062 -13.789062 8.875 -13.53125 C 8.96875 -13.28125 9.003906 -12.992188 8.984375 -12.671875 C 8.960938 -12.347656 8.9375 -12.09375 8.90625 -11.90625 C 8.875 -11.570312 8.734375 -11.351562 8.484375 -11.25 C 8.242188 -11.144531 7.960938 -11.101562 7.640625 -11.125 C 7.328125 -11.15625 7.046875 -11.179688 6.796875 -11.203125 C 6.203125 -11.265625 5.800781 -11.203125 5.59375 -11.015625 C 5.394531 -10.828125 5.296875 -10.546875 5.296875 -10.171875 C 5.296875 -9.804688 5.296875 -9.382812 5.296875 -8.90625 C 5.304688 -8.476562 5.3125 -8.054688 5.3125 -7.640625 C 5.3125 -7.234375 5.3125 -6.816406 5.3125 -6.390625 C 5.332031 -5.421875 5.347656 -4.453125 5.359375 -3.484375 C 5.367188 -2.515625 5.378906 -1.554688 5.390625 -0.609375 C 5.410156 -0.304688 5.3125 -0.117188 5.09375 -0.046875 C 4.875 0.015625 4.625 0.03125 4.34375 0 C 4.0625 -0.03125 3.816406 -0.046875 3.609375 -0.046875 C 3.460938 -0.046875 3.253906 -0.0234375 2.984375 0.015625 C 2.722656 0.0546875 2.476562 0.0546875 2.25 0.015625 C 2.019531 -0.015625 1.863281 -0.125 1.78125 -0.3125 C 1.75 -0.394531 1.726562 -0.484375 1.71875 -0.578125 C 1.707031 -0.671875 1.710938 -0.757812 1.734375 -0.84375 C 1.734375 -1.4375 1.734375 -2.023438 1.734375 -2.609375 C 1.734375 -3.191406 1.734375 -3.773438 1.734375 -4.359375 C 1.734375 -5.203125 1.734375 -6.039062 1.734375 -6.875 C 1.734375 -7.71875 1.734375 -8.554688 1.734375 -9.390625 C 1.734375 -9.796875 1.726562 -10.117188 1.71875 -10.359375 C 1.707031 -10.597656 1.507812 -10.800781 1.125 -10.96875 C 1.039062 -11 0.90625 -11.039062 0.71875 -11.09375 C 0.539062 -11.144531 0.375 -11.207031 0.21875 -11.28125 C 0.0703125 -11.363281 0 -11.472656 0 -11.609375 C 0 -11.847656 0 -12.085938 0 -12.328125 C 0 -12.578125 0 -12.820312 0 -13.0625 C 0 -13.125 0.00390625 -13.1875 0.015625 -13.25 C 0.0234375 -13.320312 0.0351562 -13.394531 0.046875 -13.46875 C 0.128906 -13.65625 0.269531 -13.78125 0.46875 -13.84375 C 0.664062 -13.914062 0.867188 -13.988281 1.078125 -14.0625 C 1.296875 -14.132812 1.460938 -14.265625 1.578125 -14.453125 C 1.734375 -14.691406 1.789062 -14.953125 1.75 -15.234375 C 1.71875 -15.515625 1.726562 -15.789062 1.78125 -16.0625 C 1.8125 -16.226562 1.835938 -16.390625 1.859375 -16.546875 C 1.890625 -16.710938 1.929688 -16.859375 1.984375 -16.984375 C 2.421875 -17.929688 3.035156 -18.675781 3.828125 -19.21875 C 4.617188 -19.757812 5.488281 -20.03125 6.4375 -20.03125 C 6.757812 -20.03125 7.113281 -20.015625 7.5 -19.984375 C 7.894531 -19.960938 8.226562 -19.84375 8.5 -19.625 C 8.71875 -19.4375 8.847656 -19.1875 8.890625 -18.875 C 8.929688 -18.570312 8.921875 -18.257812 8.859375 -17.9375 C 8.804688 -17.613281 8.726562 -17.335938 8.625 -17.109375 C 8.59375 -17.035156 8.554688 -16.96875 8.515625 -16.90625 C 8.472656 -16.851562 8.414062 -16.800781 8.34375 -16.75 C 8.226562 -16.675781 8.09375 -16.640625 7.9375 -16.640625 C 7.789062 -16.640625 7.640625 -16.648438 7.484375 -16.671875 C 7.210938 -16.703125 6.941406 -16.703125 6.671875 -16.671875 C 6.398438 -16.648438 6.15625 -16.554688 5.9375 -16.390625 C 5.726562 -16.253906 5.582031 -16.066406 5.5 -15.828125 C 5.414062 -15.585938 5.398438 -15.351562 5.453125 -15.125 C 5.535156 -14.757812 5.71875 -14.5 6 -14.34375 C 6.28125 -14.195312 6.570312 -14.070312 6.875 -13.96875 C 7.019531 -13.90625 7.210938 -13.875 7.453125 -13.875 C 7.535156 -13.875 7.625 -13.875 7.71875 -13.875 C 7.8125 -13.882812 7.894531 -13.898438 7.96875 -13.921875 C 8.03125 -13.921875 8.085938 -13.921875 8.140625 -13.921875 C 8.191406 -13.921875 8.242188 -13.921875 8.296875 -13.921875 Z M 8.296875 -13.921875 "/></g></g></g><g fill="#ffffff" fill-opacity="1"><g transform="translate(71.636124, 21.077549)"><g><path d="M 8.296875 -13.921875 C 8.597656 -13.921875 8.789062 -13.789062 8.875 -13.53125 C 8.96875 -13.28125 9.003906 -12.992188 8.984375 -12.671875 C 8.960938 -12.347656 8.9375 -12.09375 8.90625 -11.90625 C 8.875 -11.570312 8.734375 -11.351562 8.484375 -11.25 C 8.242188 -11.144531 7.960938 -11.101562 7.640625 -11.125 C 7.328125 -11.15625 7.046875 -11.179688 6.796875 -11.203125 C 6.203125 -11.265625 5.800781 -11.203125 5.59375 -11.015625 C 5.394531 -10.828125 5.296875 -10.546875 5.296875 -10.171875 C 5.296875 -9.804688 5.296875 -9.382812 5.296875 -8.90625 C 5.304688 -8.476562 5.3125 -8.054688 5.3125 -7.640625 C 5.3125 -7.234375 5.3125 -6.816406 5.3125 -6.390625 C 5.332031 -5.421875 5.347656 -4.453125 5.359375 -3.484375 C 5.367188 -2.515625 5.378906 -1.554688 5.390625 -0.609375 C 5.410156 -0.304688 5.3125 -0.117188 5.09375 -0.046875 C 4.875 0.015625 4.625 0.03125 4.34375 0 C 4.0625 -0.03125 3.816406 -0.046875 3.609375 -0.046875 C 3.460938 -0.046875 3.253906 -0.0234375 2.984375 0.015625 C 2.722656 0.0546875 2.476562 0.0546875 2.25 0.015625 C 2.019531 -0.015625 1.863281 -0.125 1.78125 -0.3125 C 1.75 -0.394531 1.726562 -0.484375 1.71875 -0.578125 C 1.707031 -0.671875 1.710938 -0.757812 1.734375 -0.84375 C 1.734375 -1.4375 1.734375 -2.023438 1.734375 -2.609375 C 1.734375 -3.191406 1.734375 -3.773438 1.734375 -4.359375 C 1.734375 -5.203125 1.734375 -6.039062 1.734375 -6.875 C 1.734375 -7.71875 1.734375 -8.554688 1.734375 -9.390625 C 1.734375 -9.796875 1.726562 -10.117188 1.71875 -10.359375 C 1.707031 -10.597656 1.507812 -10.800781 1.125 -10.96875 C 1.039062 -11 0.90625 -11.039062 0.71875 -11.09375 C 0.539062 -11.144531 0.375 -11.207031 0.21875 -11.28125 C 0.0703125 -11.363281 0 -11.472656 0 -11.609375 C 0 -11.847656 0 -12.085938 0 -12.328125 C 0 -12.578125 0 -12.820312 0 -13.0625 C 0 -13.125 0.00390625 -13.1875 0.015625 -13.25 C 0.0234375 -13.320312 0.0351562 -13.394531 0.046875 -13.46875 C 0.128906 -13.65625 0.269531 -13.78125 0.46875 -13.84375 C 0.664062 -13.914062 0.867188 -13.988281 1.078125 -14.0625 C 1.296875 -14.132812 1.460938 -14.265625 1.578125 -14.453125 C 1.734375 -14.691406 1.789062 -14.953125 1.75 -15.234375 C 1.71875 -15.515625 1.726562 -15.789062 1.78125 -16.0625 C 1.8125 -16.226562 1.835938 -16.390625 1.859375 -16.546875 C 1.890625 -16.710938 1.929688 -16.859375 1.984375 -16.984375 C 2.421875 -17.929688 3.035156 -18.675781 3.828125 -19.21875 C 4.617188 -19.757812 5.488281 -20.03125 6.4375 -20.03125 C 6.757812 -20.03125 7.113281 -20.015625 7.5 -19.984375 C 7.894531 -19.960938 8.226562 -19.84375 8.5 -19.625 C 8.71875 -19.4375 8.847656 -19.1875 8.890625 -18.875 C 8.929688 -18.570312 8.921875 -18.257812 8.859375 -17.9375 C 8.804688 -17.613281 8.726562 -17.335938 8.625 -17.109375 C 8.59375 -17.035156 8.554688 -16.96875 8.515625 -16.90625 C 8.472656 -16.851562 8.414062 -16.800781 8.34375 -16.75 C 8.226562 -16.675781 8.09375 -16.640625 7.9375 -16.640625 C 7.789062 -16.640625 7.640625 -16.648438 7.484375 -16.671875 C 7.210938 -16.703125 6.941406 -16.703125 6.671875 -16.671875 C 6.398438 -16.648438 6.15625 -16.554688 5.9375 -16.390625 C 5.726562 -16.253906 5.582031 -16.066406 5.5 -15.828125 C 5.414062 -15.585938 5.398438 -15.351562 5.453125 -15.125 C 5.535156 -14.757812 5.71875 -14.5 6 -14.34375 C 6.28125 -14.195312 6.570312 -14.070312 6.875 -13.96875 C 7.019531 -13.90625 7.210938 -13.875 7.453125 -13.875 C 7.535156 -13.875 7.625 -13.875 7.71875 -13.875 C 7.8125 -13.882812 7.894531 -13.898438 7.96875 -13.921875 C 8.03125 -13.921875 8.085938 -13.921875 8.140625 -13.921875 C 8.191406 -13.921875 8.242188 -13.921875 8.296875 -13.921875 Z M 8.296875 -13.921875 "/></g></g></g><g fill="#ffffff" fill-opacity="1"><g transform="translate(83.194543, 21.077549)"><g><path d="M 0.96875 -16.03125 C 0.59375 -16.269531 0.316406 -16.601562 0.140625 -17.03125 C -0.0234375 -17.46875 -0.03125 -17.941406 0.125 -18.453125 C 0.414062 -19.453125 1.09375 -19.96875 2.15625 -20 L 2.21875 -20 C 2.738281 -20 3.175781 -19.859375 3.53125 -19.578125 C 3.894531 -19.304688 4.132812 -18.921875 4.25 -18.421875 C 4.40625 -17.816406 4.347656 -17.257812 4.078125 -16.75 C 3.804688 -16.238281 3.347656 -15.90625 2.703125 -15.75 C 2.378906 -15.6875 2.066406 -15.679688 1.765625 -15.734375 C 1.472656 -15.785156 1.207031 -15.882812 0.96875 -16.03125 Z M 0.609375 -13.484375 C 0.847656 -13.640625 1.1875 -13.707031 1.625 -13.6875 C 1.882812 -13.6875 2.164062 -13.695312 2.46875 -13.71875 C 2.769531 -13.738281 3.050781 -13.707031 3.3125 -13.625 C 3.582031 -13.550781 3.757812 -13.378906 3.84375 -13.109375 C 4 -12.679688 4.050781 -12.164062 4 -11.5625 C 3.945312 -10.96875 3.921875 -10.445312 3.921875 -10 C 3.929688 -8.96875 3.9375 -7.941406 3.9375 -6.921875 C 3.9375 -5.898438 3.945312 -4.875 3.96875 -3.84375 C 3.96875 -3.675781 3.988281 -3.390625 4.03125 -2.984375 C 4.070312 -2.585938 4.097656 -2.160156 4.109375 -1.703125 C 4.117188 -1.242188 4.070312 -0.851562 3.96875 -0.53125 C 3.863281 -0.207031 3.660156 -0.0390625 3.359375 -0.03125 C 2.972656 -0.0078125 2.566406 0.00390625 2.140625 0.015625 C 1.710938 0.0234375 1.304688 0.00390625 0.921875 -0.046875 C 0.648438 -0.0859375 0.460938 -0.238281 0.359375 -0.5 C 0.253906 -0.757812 0.195312 -1.078125 0.1875 -1.453125 C 0.175781 -1.828125 0.1875 -2.179688 0.21875 -2.515625 C 0.257812 -2.859375 0.28125 -3.125 0.28125 -3.3125 C 0.257812 -4.007812 0.242188 -4.707031 0.234375 -5.40625 C 0.234375 -6.113281 0.234375 -6.816406 0.234375 -7.515625 C 0.210938 -8.109375 0.203125 -8.703125 0.203125 -9.296875 C 0.203125 -9.890625 0.191406 -10.472656 0.171875 -11.046875 C 0.171875 -11.535156 0.160156 -12.007812 0.140625 -12.46875 C 0.128906 -12.925781 0.285156 -13.265625 0.609375 -13.484375 Z M 0.609375 -13.484375 "/></g></g></g><g clip-path="url(#c59d22013f)"><g fill="#ffffff" fill-opacity="1"><g transform="translate(90.093949, 21.077549)"><g><path d="M 13 -0.125 C 12.5625 -0.144531 12.117188 -0.148438 11.671875 -0.140625 C 11.222656 -0.128906 10.769531 -0.125 10.3125 -0.125 C 10.207031 -0.125 10.125 -0.300781 10.0625 -0.65625 C 10.007812 -1.019531 9.972656 -1.488281 9.953125 -2.0625 C 9.929688 -2.632812 9.921875 -3.253906 9.921875 -3.921875 C 9.921875 -4.597656 9.929688 -5.25 9.953125 -5.875 C 9.972656 -6.507812 9.984375 -7.054688 9.984375 -7.515625 C 9.992188 -7.972656 10 -8.269531 10 -8.40625 C 9.988281 -9.351562 9.84375 -10.070312 9.5625 -10.5625 C 9.28125 -11.050781 8.929688 -11.390625 8.515625 -11.578125 C 8.097656 -11.765625 7.6875 -11.859375 7.28125 -11.859375 L 7.234375 -11.859375 C 6.265625 -11.859375 5.476562 -11.53125 4.875 -10.875 C 4.269531 -10.226562 3.953125 -9.378906 3.921875 -8.328125 C 3.898438 -7.648438 3.890625 -6.96875 3.890625 -6.28125 C 3.890625 -5.601562 3.890625 -4.925781 3.890625 -4.25 C 3.910156 -3.726562 3.957031 -3.144531 4.03125 -2.5 C 4.113281 -1.863281 4.101562 -1.285156 4 -0.765625 C 3.925781 -0.367188 3.765625 -0.160156 3.515625 -0.140625 C 3.273438 -0.117188 3.003906 -0.0976562 2.703125 -0.078125 C 2.492188 -0.0546875 2.222656 -0.03125 1.890625 0 C 1.566406 0.0195312 1.242188 0.00390625 0.921875 -0.046875 C 0.609375 -0.0976562 0.378906 -0.226562 0.234375 -0.4375 C 0.046875 -0.707031 -0.0195312 -1.03125 0.03125 -1.40625 C 0.0820312 -1.789062 0.113281 -2.128906 0.125 -2.421875 C 0.195312 -3.347656 0.25 -4.296875 0.28125 -5.265625 C 0.332031 -7.097656 0.28125 -8.921875 0.125 -10.734375 C 0.09375 -11.097656 0.0664062 -11.515625 0.046875 -11.984375 C 0.0351562 -12.460938 0.078125 -12.914062 0.171875 -13.34375 C 0.265625 -13.78125 0.445312 -14.117188 0.71875 -14.359375 C 1 -14.609375 1.421875 -14.679688 1.984375 -14.578125 C 2.441406 -14.492188 2.890625 -14.390625 3.328125 -14.265625 C 3.773438 -14.140625 4.226562 -14.035156 4.6875 -13.953125 C 4.71875 -13.953125 4.753906 -13.953125 4.796875 -13.953125 C 4.835938 -13.953125 4.867188 -13.953125 4.890625 -13.953125 C 5.210938 -13.953125 5.535156 -14.015625 5.859375 -14.140625 C 6.179688 -14.265625 6.507812 -14.394531 6.84375 -14.53125 C 7.1875 -14.664062 7.523438 -14.742188 7.859375 -14.765625 C 8.847656 -14.847656 9.785156 -14.675781 10.671875 -14.25 C 11.429688 -13.894531 12.019531 -13.425781 12.4375 -12.84375 C 12.851562 -12.269531 13.15625 -11.632812 13.34375 -10.9375 C 13.53125 -10.25 13.644531 -9.53125 13.6875 -8.78125 C 13.738281 -8.03125 13.785156 -7.289062 13.828125 -6.5625 C 13.828125 -6.414062 13.84375 -6.101562 13.875 -5.625 C 13.90625 -5.144531 13.925781 -4.59375 13.9375 -3.96875 C 13.945312 -3.351562 13.929688 -2.753906 13.890625 -2.171875 C 13.859375 -1.585938 13.78125 -1.097656 13.65625 -0.703125 C 13.53125 -0.316406 13.335938 -0.125 13.078125 -0.125 C 13.066406 -0.125 13.054688 -0.125 13.046875 -0.125 C 13.035156 -0.125 13.019531 -0.125 13 -0.125 Z M 13 -0.125 "/></g></g></g></g></g></g></g></svg>