<svg xmlns="http://www.w3.org/2000/svg" xmlns:xlink="http://www.w3.org/1999/xlink" width="64" zoomAndPan="magnify" viewBox="0 0 48 48" height="64" preserveAspectRatio="xMidYMid meet" version="1.0"><defs><clipPath id="4d5e18c68c"><path d="M 0.488281 3.96875 L 45 3.96875 L 45 42.90625 L 0.488281 42.90625 Z M 0.488281 3.96875 " clip-rule="nonzero"/></clipPath><clipPath id="f4e2397de3"><path d="M 0.488281 1 L 44.925781 1 L 44.925781 39.789062 L 0.488281 39.789062 Z M 0.488281 1 " clip-rule="nonzero"/></clipPath><clipPath id="e7e9653d54"><rect x="0" width="45" y="0" height="40"/></clipPath></defs><g clip-path="url(#4d5e18c68c)"><g transform="matrix(1, 0, 0, 1, 0.000000000000000056, 3)"><g clip-path="url(#e7e9653d54)"><g clip-path="url(#f4e2397de3)"><path fill="#000000" d="M 2.136719 14.769531 C 3.945312 11.5 7.597656 10.503906 11.105469 10.398438 C 11.050781 8.886719 10.421875 5.910156 12.769531 4.777344 C 17.445312 2.640625 22.742188 1.304688 28.007812 1.078125 C 32.246094 1.984375 36.847656 1.234375 40.671875 3.566406 C 44.886719 4.921875 44.257812 7.832031 44.480469 10.464844 C 44.136719 11.707031 44.277344 15.730469 44.636719 16.957031 C 44.566406 18.167969 44.328125 22.238281 44.171875 23.4375 C 43.585938 28.292969 47.527344 34.539062 40.753906 37.03125 C 38.09375 39.175781 34.636719 38.589844 31.308594 38.902344 C 25.816406 39.441406 11.179688 39.953125 11.847656 31.96875 C 6.609375 31.816406 1.15625 28.800781 1.136719 22.875 C 0.898438 20.054688 0.511719 17.246094 2.136719 14.769531 Z M 6.441406 26.25 C 7.574219 27.484375 9.65625 28.097656 11.265625 27.539062 C 10.816406 22.886719 11.058594 19.015625 11.25 14.453125 C 8.21875 13.476562 4.882812 15.941406 5.085938 19.203125 C 5.070312 21.714844 4.375 24.355469 6.441406 26.25 Z M 6.441406 26.25 " fill-opacity="1" fill-rule="nonzero"/></g><path fill="#ffffff" d="M 41.578125 7.222656 C 41.789062 5.371094 39.996094 5.0625 38.320312 4.789062 C 35.9375 3.984375 33.265625 3.414062 30.691406 2.960938 C 26.195312 3.195312 15.933594 2.65625 13.980469 7.222656 C 14.578125 12.664062 41.148438 12.941406 41.578125 7.222656 Z M 41.578125 7.222656 " fill-opacity="1" fill-rule="nonzero"/></g></g></g></svg>